<?xml version="1.0" encoding="UTF-8"?>
<svg width="44px" height="15px" viewBox="0 0 44 15" version="1.1" xmlns="http://www.w3.org/2000/svg" xmlns:xlink="http://www.w3.org/1999/xlink">
    <!-- Generator: Sketch 53 (72520) - https://sketchapp.com -->
    <title>bbva-white</title>
    <desc>Created with Sketch.</desc>
    <g id="bbva-white" stroke="none" stroke-width="1" fill="none" fill-rule="evenodd">
        <g id="MARCA" transform="translate(0.000000, 1.000000)" fill="#FFFFFF">
            <path d="M31.5964558,1.88267722 L27.8256815,8.89568385 C27.7435502,9.04754921 27.5113859,9.04754921 27.4292545,8.89568385 L23.6553868,1.88252611 C23.6174919,1.81241115 23.5430942,1.7685893 23.4620455,1.7685893 L21.6381409,1.7685893 C21.5144024,1.7685893 21.4352098,1.89763709 21.4936763,2.00432062 L27.4346681,12.8679076 C27.5171088,13.0181108 27.7375179,13.0181108 27.8199586,12.8679076 L33.7612598,2.00447173 C33.8197262,1.8977882 33.7406883,1.76874041 33.6167952,1.76874041 L31.7897971,1.76874041 C31.7085938,1.76874041 31.6343507,1.81256226 31.5964558,1.88267722" id="Fill-4"></path>
            <path d="M33.7371308,11.2409082 L37.5079051,4.22790158 C37.5900365,4.07603622 37.8223554,4.07603622 37.9043321,4.22790158 L41.6781998,11.2412104 C41.7159401,11.3111743 41.7904925,11.3549961 41.8713865,11.3549961 L43.6954457,11.3549961 C43.8191842,11.3549961 43.8983768,11.2259483 43.8399104,11.1192648 L37.8989186,0.255828921 C37.8164778,0.105625762 37.5960687,0.105625762 37.513628,0.255828921 L31.5723268,11.1191137 C31.5138604,11.2257972 31.5928983,11.354845 31.7167914,11.354845 L33.5437895,11.354845 C33.6249929,11.354845 33.6992359,11.3110232 33.7371308,11.2409082" id="Fill-5"></path>
            <path d="M5.52956151,11.354845 L2.12984789,11.3551472 C2.00935758,11.3551472 1.91144954,11.2594947 1.91144954,11.1416291 L1.91129487,8.16355678 C1.91129487,8.04554001 2.00920291,7.95003861 2.12984789,7.95003861 L5.52956151,7.95003861 C7.14991637,7.95003861 7.8734769,8.39883477 7.8734769,9.65244181 C7.8734769,10.9062 7.16569302,11.354845 5.52956151,11.354845 Z M2.13201331,3.38984654 L5.48424231,3.38984654 C6.72007997,3.38984654 7.34928993,3.90633989 7.34928993,4.85802952 C7.34928993,5.81379912 6.72240006,6.3260614 5.48424231,6.3260614 L2.13201331,6.32621251 C2.01136833,6.32621251 1.91346029,6.23071111 1.91346029,6.11254323 L1.91346029,3.60336471 C1.91346029,3.48534794 2.01136833,3.38984654 2.13201331,3.38984654 Z M7.96844615,6.94213613 C8.75542262,6.55771275 9.24712825,5.72494655 9.24712825,4.69966643 C9.24712825,2.95389471 7.85367875,1.7685893 5.88639223,1.7685893 L0.233710977,1.7685893 C0.113065999,1.7685893 0.0153126319,1.86424182 0.0153126319,1.98210748 L0.0153126319,12.7668152 C0.0153126319,12.8848319 0.113065999,12.9804844 0.233710977,12.9804844 L5.63845134,12.9804844 C8.34352829,12.9804844 9.76976848,11.8430808 9.76976848,9.61693101 C9.76976848,7.44336739 7.96844615,6.94213613 7.96844615,6.94213613 L7.96844615,6.94213613 Z" id="Fill-6"></path>
            <path d="M17.1254,11.354845 L13.7256864,11.3551472 C13.6050414,11.3551472 13.5071334,11.2594947 13.5071334,11.1416291 L13.5071334,8.16355678 C13.5071334,8.04554001 13.6048867,7.95003861 13.7255317,7.95003861 L17.1254,7.95003861 C18.7457549,7.95003861 19.4691607,8.39883477 19.4691607,9.65244181 C19.4691607,10.9062 18.7613768,11.354845 17.1254,11.354845 Z M13.7276971,3.38984654 L17.0800808,3.38984654 C18.3157638,3.38984654 18.9449738,3.90633989 18.9449738,4.85802952 C18.9449738,5.81379912 18.3180839,6.3260614 17.0800808,6.3260614 L13.7276971,6.32621251 C13.6070522,6.32621251 13.5092988,6.23071111 13.5092988,6.11254323 L13.5092988,3.60336471 C13.5092988,3.48534794 13.6070522,3.38984654 13.7276971,3.38984654 Z M19.5642846,6.94213613 C20.3511064,6.55771275 20.8429667,5.72494655 20.8429667,4.69966643 C20.8429667,2.95389471 19.4493626,1.7685893 17.4820761,1.7685893 L11.8293948,1.7685893 C11.7087498,1.7685893 11.6109965,1.86424182 11.6109965,1.98210748 L11.6109965,12.7668152 C11.6109965,12.8848319 11.7087498,12.9804844 11.8293948,12.9804844 L17.2342898,12.9804844 C19.9392121,12.9804844 21.365607,11.8430808 21.365607,9.61693101 C21.365607,7.44336739 19.5642846,6.94213613 19.5642846,6.94213613 L19.5642846,6.94213613 Z" id="Fill-7"></path>
        </g>
    </g>
</svg>