<svg xmlns="http://www.w3.org/2000/svg" viewBox="0 0 240 240"><style>@keyframes stela-anim-rotation{0%{transform:translate(120px,120px) rotate(0deg)}4.467%{transform:translate(120px,120px) rotate(0deg);animation-timing-function:cubic-bezier(.4,.2,.2,.6)}to{transform:translate(120px,120px) rotate(720deg)}}@keyframes stela-anim-visibility{0%,88.867%,to{visibility:hidden;animation-timing-function:steps(1)}4.467%{visibility:visible;animation-timing-function:steps(1)}}@keyframes stela-anim-opacity{0%,75.533%{opacity:1}88.867%,to{opacity:0}}@keyframes stela-anim-dash-array{0%,4.467%,88.867%,to{stroke-dasharray:0 688px}50%{stroke-dasharray:340px 688px}}@keyframes flash-anim-rotation{0%{transform:translate(120px,120px) rotate(0deg)}4.467%{transform:translate(120px,120px) rotate(0deg);animation-timing-function:cubic-bezier(.4,.2,.2,.6)}to{transform:translate(120px,120px) rotate(720deg)}}@keyframes flash-anim-visibility{0%{visibility:visible;animation-timing-function:steps(1)}to{visibility:hidden;animation-timing-function:steps(1)}}@keyframes flash-anim-dash-array{0%,4.467%,92.2%,to{stroke-dasharray:0 688px}50%{stroke-dasharray:161px 688px}}@keyframes lead-dot-anim{0%{transform:translate(120px,120px) rotate(0deg) translateY(-108px);animation-timing-function:cubic-bezier(.4,.2,.2,.6)}to{transform:translate(120px,120px) rotate(720deg) translateY(-108px)}}.lead-dot{fill:#001391;animation:1.5s linear infinite both lead-dot-anim}.progress{fill:none;stroke-width:24px;stroke-linecap:round;transform:translate(120px,120px)}.progress.flash{stroke:#001391;animation:1.5s linear infinite both flash-anim-rotation,1.5s linear infinite forwards flash-anim-visibility,1.5s linear infinite both flash-anim-dash-array}.progress.stela{stroke:#cad1d8;animation:1.5s linear infinite both stela-anim-rotation,1.5s linear infinite forwards stela-anim-visibility,1.5s linear infinite both stela-anim-opacity,1.5s linear infinite both stela-anim-dash-array}</style><path d="M0-108c-59.6 0-108 48.4-108 108S-59.6 108 0 108 108 59.6 108 0 59.6-108 0-108Z" class="progress stela"/><path d="M0-108c-59.6 0-108 48.4-108 108S-59.6 108 0 108 108 59.6 108 0 59.6-108 0-108Z" class="progress flash"/><path fill="#001391" d="M0-12c6.6 0 12 5.4 12 12S6.6 12 0 12-12 6.6-12 0s5.4-12 12-12Z" class="lead-dot"/></svg>
