<svg viewBox="0 0 107 32" xmlns="http://www.w3.org/2000/svg"><path d="M57.17 4.055c.21 0 .421.14.492.28l9.211 17.484c.211.351.774.351.985 0L77.07 4.336c.07-.21.28-.281.422-.281h4.43c.28 0 .492.28.351.562L67.788 31.719c-.141.351-.704.351-.915 0L52.388 4.617c-.141-.211.07-.562.351-.562zM91.554.263c.141-.35.704-.35.915 0l14.485 27.103c.14.21-.07.562-.351.562h-4.43c-.211 0-.422-.14-.493-.281l-9.21-17.484c-.211-.35-.774-.35-.985 0l-9.212 17.484c-.07.21-.281.28-.422.28h-4.43c-.281 0-.492-.28-.351-.561zM19.408 16.904c1.899-.983 3.094-3.02 3.094-5.617 0-4.353-3.375-7.302-8.227-7.302H.563A.554.554 0 000 4.546v26.892c0 .281.211.562.563.562h13.22c6.61 0 10.055-2.809 10.055-8.355-.07-5.477-4.43-6.741-4.43-6.741M5.133 8.057h8.228c3.023 0 4.57 1.264 4.57 3.651 0 2.387-1.547 3.651-4.57 3.651H5.204a.554.554 0 01-.563-.561v-6.25c0-.21.211-.491.492-.491m8.298 19.87H5.133a.554.554 0 01-.562-.561v-7.443c0-.28.21-.562.562-.562h8.298c3.938 0 5.696 1.124 5.696 4.213 0 3.09-1.688 4.354-5.696 4.354m34.245-11.024c1.899-.983 3.094-3.02 3.094-5.617 0-4.353-3.375-7.302-8.227-7.302H28.831a.554.554 0 00-.563.561v26.892c0 .281.211.562.563.562h13.22c6.61 0 10.055-2.809 10.055-8.355 0-5.477-4.43-6.741-4.43-6.741M33.472 8.057h8.157c3.024 0 4.57 1.264 4.57 3.651 0 2.387-1.546 3.651-4.57 3.651h-8.157a.554.554 0 01-.563-.561v-6.25c0-.21.282-.491.563-.491m8.297 19.87h-8.297a.554.554 0 01-.563-.561v-7.443c0-.28.211-.562.563-.562h8.297c3.938 0 5.696 1.124 5.696 4.213 0 3.09-1.758 4.354-5.696 4.354" fill="#FFF"/></svg>