<svg xmlns="http://www.w3.org/2000/svg" width="33" height="10"><path d="M23.8 1.4L21 6.8c-.1.1-.2.1-.3 0l-2.8-5.4c0-.1-.1-.1-.1-.1h-1.4c-.1 0-.2.1-.1.2l4.5 8.4c.1.1.2.1.3 0l4.5-8.4c0-.1 0-.2-.1-.2h-1.4c-.2 0-.3 0-.3.1m1.6 7.2l2.8-5.4c.1-.1.2-.1.3 0l2.8 5.4c0 .1.1.1.1.1h1.4c.2 0 .2-.1.2-.2L28.5.1c-.1-.1-.2-.1-.3 0l-4.5 8.4c0 .1 0 .2.1.2h1.4c.1 0 .2 0 .2-.1M6 5.3c.6-.3 1-.9 1-1.7 0-1.3-1-2.3-2.5-2.3H.2c-.1 0-.2.1-.2.2v8.3c0 .1.1.2.2.2h4.1c2 0 3.1-.9 3.1-2.6C7.3 5.7 6 5.3 6 5.3M1.6 2.6h2.5c.9 0 1.4.4 1.4 1.1 0 .7-.5 1.1-1.4 1.1H1.6c-.1 0-.2-.1-.2-.2V2.7c0-.1.1-.1.2-.1m2.6 6.1H1.6c-.1 0-.2-.1-.2-.2V6.2c0-.1.1-.2.2-.2h2.6C5.4 6 6 6.3 6 7.3c-.1 1-.6 1.4-1.8 1.4m10.5-3.4c.6-.3 1-.9 1-1.7 0-1.3-1-2.3-2.5-2.3H8.9c-.1 0-.2.1-.2.2v8.3c0 .1.1.2.2.2H13c2 0 3.1-.9 3.1-2.6 0-1.7-1.4-2.1-1.4-2.1m-4.4-2.7h2.5c.9 0 1.4.4 1.4 1.1 0 .7-.5 1.1-1.4 1.1h-2.5c-.1 0-.2-.1-.2-.2V2.7c.1-.1.1-.1.2-.1m2.6 6.1h-2.6c-.1 0-.2-.1-.2-.2V6.2c0-.1.1-.2.2-.2h2.6c1.2 0 1.8.3 1.8 1.3-.1 1-.6 1.4-1.8 1.4" fill="#043263"/></svg>